<?xml version="1.0" standalone="no"?>
<!DOCTYPE svg PUBLIC "-//W3C//DTD SVG 20010904//EN"
 "http://www.w3.org/TR/2001/REC-SVG-20010904/DTD/svg10.dtd">
<svg version="1.0" xmlns="http://www.w3.org/2000/svg"
 width="1024.000000pt" height="1024.000000pt" viewBox="0 0 1024.000000 1024.000000"
 preserveAspectRatio="xMidYMid meet">
<metadata>
Created by potrace 1.11, written by Peter Selinger 2001-2013
</metadata>
<g transform="translate(0.000000,1024.000000) scale(0.100000,-0.100000)"
fill="#000000" stroke="none">
<path d="M0 5120 l0 -5120 5120 0 5120 0 0 5120 0 5120 -5120 0 -5120 0 0
-5120z m5350 4066 c160 -22 300 -54 439 -98 161 -52 225 -77 451 -181 219
-101 283 -122 348 -112 102 15 160 73 241 243 l35 72 327 0 328 0 5 -52 c4
-42 78 -2266 76 -2316 0 -10 -91 -12 -436 -10 l-437 3 -14 50 c-231 830 -573
1285 -1098 1461 -357 119 -828 120 -1162 3 -163 -58 -281 -127 -381 -223 -114
-108 -181 -219 -229 -373 -25 -82 -27 -101 -27 -273 -1 -163 2 -194 22 -263
73 -254 246 -435 555 -585 204 -99 464 -186 927 -308 913 -242 1225 -346 1565
-519 189 -96 293 -162 431 -273 393 -316 610 -737 691 -1339 13 -97 17 -200
17 -428 0 -262 -3 -318 -23 -445 -93 -601 -327 -1073 -718 -1451 -391 -377
-879 -602 -1488 -685 -163 -22 -614 -26 -780 -6 -355 43 -587 106 -970 265
-221 92 -312 120 -390 121 -139 2 -202 -78 -318 -406 -6 -17 -34 -18 -387 -18
-209 0 -380 1 -380 3 0 1 -23 598 -50 1326 -28 729 -50 1331 -50 1338 0 11 85
13 445 13 383 0 445 -2 445 -15 0 -27 89 -320 135 -445 59 -161 186 -420 262
-535 333 -506 821 -745 1522 -745 690 0 1157 219 1350 632 131 279 132 676 2
926 -144 275 -435 449 -1054 628 -105 31 -410 110 -676 176 -512 126 -699 179
-898 252 -986 363 -1461 905 -1579 1801 -25 184 -25 595 -1 760 89 605 360
1118 775 1466 411 344 914 534 1537 583 106 8 514 -4 615 -18z"/>
</g>
</svg>
